<?xml version="1.0" encoding="utf-8"?>
<!-- Generator: Adobe Illustrator 23.1.0, SVG Export Plug-In . SVG Version: 6.00 Build 0)  -->
<svg version="1.1" xmlns="http://www.w3.org/2000/svg" xmlns:xlink="http://www.w3.org/1999/xlink" x="0px" y="0px"
	 viewBox="0 0 268.5 269" style="enable-background:new 0 0 268.5 269;" xml:space="preserve">
<style type="text/css">
	.st0{fill:none;stroke:#000000;stroke-width:7.9168;stroke-miterlimit:10;}
	.st1{fill:#F6AE2D;}
	.st2{fill:none;stroke:#000000;stroke-width:6;stroke-miterlimit:10;}
	.st3{fill:#F26419;}
	.st4{fill:none;stroke:#000000;stroke-width:2;stroke-miterlimit:10;}
	.st5{fill:none;stroke:#000000;stroke-width:3;stroke-miterlimit:10;}
	.st6{fill:none;stroke:#000000;stroke-width:2.9;stroke-miterlimit:10;}
	.st7{fill:none;stroke:#000000;stroke-width:10;stroke-miterlimit:10;}
</style>
<g id="Saturno">
</g>
<g id="Terra">
</g>
<g id="Jupiter">
</g>
<g id="Anel_de_Uranus">
	<path class="st0" d="M1118.7-198.1"/>
	<g id="XMLID_5_">
		<g>
			<path class="st1" d="M134.3,3c72.5,0,131.2,58.9,131.2,131.5c0,72.6-58.8,131.5-131.2,131.5C61.8,266,3,207.1,3,134.5
				C3,61.9,61.8,3,134.3,3z"/>
		</g>
		<g>
			<path class="st2" d="M265.5,134.5c0,72.6-58.8,131.5-131.2,131.5C61.8,266,3,207.1,3,134.5C3,61.9,61.8,3,134.3,3
				C206.7,3,265.5,61.9,265.5,134.5z"/>
		</g>
	</g>
	<g id="XMLID_6_">
		<g>
			<path class="st3" d="M232.5,144.5c37,18,30,19,30,19s-24,3-40,12s-43-7-67-12s-48,8-60,14s-91-20-91-20l-1-20c0,0,60,18,89,3
				s52,8,63,8S195.5,126.5,232.5,144.5z M171.5,156.5c0,0,27,17,63,0C234.5,156.5,191.5,135.5,171.5,156.5z"/>
			<path class="st3" d="M242.5,208.5l-31,31c2-7-68-12-74-6s-20,2-20,2c-43-14-73-5-73-5l-28-36c0,0,54-8,88,13s43,11,52,3
				S223.5,185.5,242.5,208.5z"/>
			<path class="st3" d="M185.5,13.5L230.9,45c-1.9-1.1-41.9-23.6-78.9-11c-38,13-81-14-81-14s30.5-18.5,52.5-16.5
				C123.5,3.5,136.5,37.5,185.5,13.5z"/>
			<ellipse class="st3" cx="199" cy="155.5" rx="12.5" ry="2"/>
			<path d="M139.5,3.5l32,5C150.5,28.5,139.5,3.5,139.5,3.5z"/>
		</g>
		<g>
			<path class="st4" d="M230.9,45c-1.9-1.1-41.9-23.6-78.9-11c-38,13-81-14-81-14s30.5-18.5,52.5-16.5c0,0,13,34,62,10L230.9,45z"/>
			<path class="st4" d="M230.9,45L230.9,45C231,45,231,45,230.9,45"/>
			<path class="st5" d="M139.5,3.5c0,0,11,25,32,5L139.5,3.5z"/>
			<path class="st4" d="M28.5,56.5c0,0,34-12,95,8s76,0,76,0"/>
			<path class="st4" d="M258.5,93.5c0,0-75-10-107-6"/>
			<path class="st4" d="M6.5,102.5c0,0,41-21,85,5s87,3,87,3"/>
			<path class="st4" d="M4.5,157.5c0,0,79,26,91,20s36-19,60-14s51,21,67,12s40-12,40-12s7-1-30-19s-66,4-77,4s-34-23-63-8
				s-89-3-89-3L4.5,157.5z"/>
			<path class="st6" d="M234.5,156.5c0,0-43-21-63,0C171.5,156.5,198.5,173.5,234.5,156.5z"/>
			<ellipse class="st5" cx="199" cy="155.5" rx="12.5" ry="2"/>
			<path class="st4" d="M16.5,194.5c0,0,54-8,88,13s43,11,52,3s67-25,86-2l-31,31c2-7-68-12-74-6s-20,2-20,2c-43-14-73-5-73-5
				L16.5,194.5z"/>
		</g>
	</g>
	<path class="st7" d="M365,119"/>
</g>
</svg>
