<?xml version="1.0" encoding="utf-8"?>
<!-- Generator: Adobe Illustrator 23.1.0, SVG Export Plug-In . SVG Version: 6.00 Build 0)  -->
<svg version="1.1" xmlns="http://www.w3.org/2000/svg" xmlns:xlink="http://www.w3.org/1999/xlink" x="0px" y="0px"
	 viewBox="0 0 358.3 276.6" style="enable-background:new 0 0 358.3 276.6;" xml:space="preserve">
<style type="text/css">
	.st0{fill:none;stroke:#000000;stroke-width:7.9168;stroke-miterlimit:10;}
	.st1{fill:#0099BC;}
	.st2{fill:none;stroke:#000000;stroke-width:6;stroke-miterlimit:10;}
	.st3{fill:none;stroke:#000000;stroke-width:9;stroke-miterlimit:10;}
	.st4{fill:#0665C3;}
	.st5{fill:none;stroke:#000000;stroke-width:2;stroke-miterlimit:10;}
</style>
<g id="Saturno">
</g>
<g id="Terra">
</g>
<g id="Jupiter">
</g>
<g id="Anel_de_Uranus">
	<path class="st0" d="M1350.6-184.3"/>
	<g id="XMLID_10_">
		<g>
			<ellipse class="st1" cx="176.2" cy="140.8" rx="112.5" ry="123.5"/>
		</g>
		<g>
			<ellipse class="st2" cx="176.2" cy="140.8" rx="112.5" ry="123.5"/>
		</g>
	</g>
	
		<ellipse transform="matrix(0.9798 -0.1998 0.1998 0.9798 -24.8169 38.662)" class="st3" cx="179.2" cy="142.3" rx="178" ry="46.5"/>
	<g id="XMLID_9_">
		<g>
			<path class="st4" d="M255.7,53.3c0,0,35,43,33,78v6C127.7,96.3,67.6,179,67.6,179l-4.4-26.2l0.4-26.8
				C63.6,126,123.7,33.3,255.7,53.3z"/>
			<path class="st4" d="M91.2,221.8c0,0,114-39,176-8C267.2,213.8,189.7,322.3,91.2,221.8z"/>
		</g>
		<g>
			<path class="st5" d="M91.2,221.8c0,0,114-39,176-8C267.2,213.8,189.7,322.3,91.2,221.8z"/>
			<path class="st5" d="M288.7,137.3C127.7,96.3,67.6,179,67.6,179l-4.4-26.2l0.4-26.8c0,0,60.1-92.7,192.1-72.7c0,0,35,43,33,78
				V137.3z"/>
		</g>
	</g>
</g>
</svg>
