<?xml version="1.0" encoding="utf-8"?>
<!-- Generator: Adobe Illustrator 23.1.0, SVG Export Plug-In . SVG Version: 6.00 Build 0)  -->
<svg version="1.1" xmlns="http://www.w3.org/2000/svg" xmlns:xlink="http://www.w3.org/1999/xlink" x="0px" y="0px"
	 viewBox="0 0 750 500" style="enable-background:new 0 0 750 500;" xml:space="preserve">
<style type="text/css">
	.st0{clip-path:url(#SVGID_2_);fill:url(#SVGID_3_);}
	.st1{opacity:0.3;clip-path:url(#SVGID_2_);}
	.st2{opacity:0.5;fill:url(#SVGID_4_);}
	.st3{opacity:0.5;}
	.st4{fill:url(#SVGID_5_);}
	.st5{clip-path:url(#SVGID_2_);}
	.st6{opacity:0.4;fill:#FFFFFF;}
	.st7{opacity:0.7;fill:#E6B8FF;}
	.st8{clip-path:url(#SVGID_2_);fill:url(#SVGID_6_);}
	.st9{opacity:0.4;clip-path:url(#SVGID_2_);}
	.st10{opacity:0.25;fill:url(#SVGID_7_);}
	.st11{opacity:0.25;clip-path:url(#SVGID_2_);fill:url(#SVGID_8_);}
	.st12{opacity:0.25;clip-path:url(#SVGID_2_);fill:url(#SVGID_9_);}
	.st13{opacity:0.25;clip-path:url(#SVGID_2_);fill:url(#SVGID_10_);}
	.st14{opacity:0.63;}
	.st15{fill:#4F2865;}
	.st16{fill:#7C5F8C;}
	.st17{fill:#6C4C7F;}
	.st18{fill:#E8A33E;}
	.st19{fill:#EDBC6D;}
	.st20{fill:#D39539;}
</style>
<g id="background_1">
</g>
<g id="background_2">
	<g>
		<g>
			<defs>
				<rect id="SVGID_1_" width="750" height="500"/>
			</defs>
			<clipPath id="SVGID_2_">
				<use xlink:href="#SVGID_1_"  style="overflow:visible;"/>
			</clipPath>
			
				<radialGradient id="SVGID_3_" cx="375.5" cy="250" r="317.13" gradientTransform="matrix(1.5 0 0 1 -188.25 0)" gradientUnits="userSpaceOnUse">
				<stop  offset="0" style="stop-color:#2A0041"/>
				<stop  offset="0.5195" style="stop-color:#26003B"/>
				<stop  offset="1" style="stop-color:#1F0030"/>
			</radialGradient>
			<rect class="st0" width="750" height="500"/>
			<g class="st1">
				
					<linearGradient id="SVGID_4_" gradientUnits="userSpaceOnUse" x1="-34.2376" y1="239.5663" x2="801.9983" y2="239.5663" gradientTransform="matrix(0.9875 0.1577 -0.1577 0.9875 28.1304 -55.6459)">
					<stop  offset="0.4176" style="stop-color:#523065"/>
					<stop  offset="0.5275" style="stop-color:#6E527E"/>
				</linearGradient>
				<path class="st2" d="M-18.8,21.2c155.7,18.4,304.4,71,432.6,152.8c6.4,4.1,13.1,8.6,16.6,15.3c3.5,6.8,2.8,16.6-3.7,21.7
					c-5.7,4.5-13.5,4-20.4,3.2c-20.9-2.4-41.9-4.8-62.8-7.2c-15.4-1.8-35.3-1.3-42.8,13c-5,9.4-1.5,20.7,5.5,27.7
					c7,6.9,16.7,10.5,26.1,14c0,0,330.8,154.9,419.7,236c-87.8-85.8-187-152.5-298.6-206.6c-8.9-4.3-21.9-12.4-28.2-20
					c-6.2-7.6-8.7-19.3-2.9-28.3c8.8-13.6,28.5-12.3,43.5-9.1c20.5,4.3,40.9,8.6,61.4,12.9c6.7,1.4,14.4,2.7,20.4-1.4
					c6.9-4.6,8.5-14.4,5.6-21.5c-2.8-7.1-9-12.2-15-16.9C419.1,113,216.5,16.3,36.4-6.4L-18.8,21.2z"/>
				<g class="st3">
					<linearGradient id="SVGID_5_" gradientUnits="userSpaceOnUse" x1="105.4482" y1="363.3069" x2="83.2355" y2="351.0515">
						<stop  offset="0.4176" style="stop-color:#523065"/>
						<stop  offset="0.5275" style="stop-color:#6E527E"/>
					</linearGradient>
					<path class="st4" d="M-9.7,507.9c46.1-101.8,98-175.2,150.9-213.8c2.7-1.9,5.4-3.8,7.9-1.8c2.5,2,4.5,9.2,3.9,17.4
						c-0.5,7.2-2.8,12.6-4.8,17.1c-6.2,13.7-12.4,27.5-18.6,41.2c-4.5,10.1-9.8,25-8.7,40.2c0.7,10,4.2,15.1,7.7,14.7
						c3.4-0.4,6.8-5.1,10.2-9.7c0,0,123.9-137.8,166.1-148c-42.9,6.3-84.6,33.9-126.8,79.1c-3.4,3.6-8.7,7.7-12.1,7.1
						c-3.4-0.6-6.7-6.7-7.1-17c-0.7-15.7,4.9-29.2,9.7-38.1c6.5-12.1,13-24.2,19.5-36.3c2.1-4,4.5-8.8,5.2-15.9
						c0.8-8.2-0.9-16-3.3-18.7c-2.4-2.7-5.2-1.7-7.8-0.5C129,248.9,52.7,332-0.9,448.6L-9.7,507.9z"/>
				</g>
			</g>
			<g id="estrellas_2_1_" class="st5">
				<circle class="st6" cx="300.8" cy="30" r="1.8"/>
				<circle class="st6" cx="150.3" cy="102.3" r="1.8"/>
				<circle class="st6" cx="600" cy="51.7" r="1.8"/>
				<circle class="st6" cx="473" cy="56.8" r="1.8"/>
				<circle class="st6" cx="335.5" cy="176.5" r="1.8"/>
				<circle class="st6" cx="344.8" cy="442.9" r="1.8"/>
				<circle class="st6" cx="462" cy="329.7" r="1.8"/>
				<circle class="st6" cx="378.7" cy="340.9" r="1.8"/>
				<circle class="st6" cx="178" cy="450.7" r="1.8"/>
				<circle class="st6" cx="276.7" cy="146.1" r="1.8"/>
				<circle class="st6" cx="402.7" cy="111.4" r="1.8"/>
				<circle class="st6" cx="146" cy="246.9" r="1.8"/>
				<circle class="st6" cx="157.3" cy="313.9" r="1.8"/>
			</g>
			<g id="estrellas_1" class="st5">
				<polygon class="st7" points="111.5,413.8 112.6,413.6 111.5,413.4 111.8,413 111.4,413.3 111.2,412.3 111,413.3 110.6,413 
					110.8,413.4 109.7,413.6 110.8,413.8 110.6,414.2 111,413.9 111.2,415 111.4,413.9 111.8,414.2 				"/>
				<polygon class="st7" points="169.1,439.8 170.2,439.6 169.1,439.4 169.4,439 169,439.3 168.8,438.2 168.6,439.3 168.2,439 
					168.5,439.4 167.4,439.6 168.5,439.8 168.2,440.2 168.6,439.9 168.8,440.9 169,439.9 169.4,440.2 				"/>
				<polygon class="st7" points="135.1,427.2 136.2,427 135.1,426.8 135.4,426.5 135,426.7 134.8,425.7 134.6,426.7 134.2,426.5 
					134.5,426.8 133.4,427 134.5,427.2 134.2,427.6 134.6,427.4 134.8,428.4 135,427.4 135.4,427.6 				"/>
				<polygon class="st7" points="164.7,416.4 165.8,416.2 164.7,416 165,415.6 164.6,415.9 164.4,414.8 164.2,415.9 163.8,415.6 
					164.1,416 163,416.2 164.1,416.4 163.8,416.8 164.2,416.5 164.4,417.5 164.6,416.5 165,416.8 				"/>
				<polygon class="st7" points="89.2,440.3 90.3,440.1 89.2,439.9 89.5,439.5 89.1,439.8 88.8,438.7 88.6,439.8 88.2,439.5 
					88.5,439.9 87.4,440.1 88.5,440.3 88.2,440.7 88.6,440.4 88.8,441.4 89.1,440.4 89.5,440.7 				"/>
				<polygon class="st7" points="94.4,454.2 95.6,454 94.4,453.8 94.7,453.4 94.3,453.7 94.1,452.6 93.9,453.7 93.5,453.4 
					93.8,453.8 92.7,454 93.8,454.2 93.5,454.5 93.9,454.3 94.1,455.3 94.3,454.3 94.7,454.5 				"/>
				<polygon class="st7" points="81.2,412.8 82.3,412.6 81.2,412.4 81.5,412 81.1,412.3 80.9,411.2 80.7,412.3 80.3,412 80.6,412.4 
					79.5,412.6 80.6,412.8 80.3,413.2 80.7,412.9 80.9,413.9 81.1,412.9 81.5,413.2 				"/>
				<polygon class="st7" points="51.9,408.3 53,408.1 51.9,407.9 52.2,407.5 51.8,407.8 51.5,406.7 51.3,407.8 50.9,407.5 
					51.2,407.9 50.1,408.1 51.2,408.3 50.9,408.7 51.3,408.4 51.5,409.4 51.8,408.4 52.2,408.7 				"/>
				<polygon class="st7" points="64.4,389.3 65.5,389.1 64.4,389 64.7,388.6 64.3,388.8 64.1,387.8 63.9,388.8 63.5,388.6 63.7,389 
					62.6,389.1 63.7,389.3 63.5,389.7 63.9,389.5 64.1,390.5 64.3,389.5 64.7,389.7 				"/>
				<polygon class="st7" points="49.1,461 50.2,460.8 49.1,460.6 49.4,460.2 49,460.5 48.8,459.4 48.6,460.5 48.2,460.2 48.5,460.6 
					47.4,460.8 48.5,461 48.2,461.4 48.6,461.1 48.8,462.1 49,461.1 49.4,461.4 				"/>
			</g>
			<radialGradient id="SVGID_6_" cx="252.1808" cy="598.4339" r="0" gradientUnits="userSpaceOnUse">
				<stop  offset="0" style="stop-color:#2A0041"/>
				<stop  offset="0.5195" style="stop-color:#26003B"/>
				<stop  offset="1" style="stop-color:#1F0030"/>
			</radialGradient>
			<path class="st8" d="M252.2,598.4"/>
			<g class="st9">
				
					<linearGradient id="SVGID_7_" gradientUnits="userSpaceOnUse" x1="573.9798" y1="339.0371" x2="559.8289" y2="331.2296" gradientTransform="matrix(-0.9823 0.1874 -0.1874 -0.9823 1320.9615 297.2792)">
					<stop  offset="0.4176" style="stop-color:#523065"/>
					<stop  offset="0.5275" style="stop-color:#6E527E"/>
				</linearGradient>
				<path class="st10" d="M748.4-32.4C731.7,36.8,708,89,679.5,119.4c-1.4,1.5-3,3-4.7,2.1c-1.8-1-3.9-5.2-4.5-10.4
					c-0.5-4.6,0.2-8.2,0.9-11.3c2.2-9.3,4.5-18.7,6.7-28c1.6-6.9,3.1-16.8,0.6-26.2c-1.7-6.2-4.5-9-6.6-8.3c-2.1,0.7-3.7,4-5.2,7.3
					c0,0-61.1,101-86.3,112.4c26.1-9,48.9-31.3,69.9-64.6c1.7-2.7,4.5-5.9,6.7-5.9c2.2,0,5,3.4,6.5,9.8c2.3,9.7,0.4,18.9-1.5,25
					c-2.6,8.4-5.2,16.7-7.8,25.1c-0.9,2.7-1.8,6-1.4,10.6c0.5,5.2,2.5,9.9,4.3,11.3c1.8,1.4,3.4,0.4,4.9-0.6
					c30.4-21.3,68.2-82.4,87.9-161.8L748.4-32.4z"/>
			</g>
			<g id="estrellas_1_2_" class="st5">
				<polygon class="st7" points="602.3,77 603.4,76.8 602.3,76.6 602.6,76.2 602.2,76.5 601.9,75.4 601.7,76.5 601.3,76.2 
					601.6,76.6 600.5,76.8 601.6,77 601.3,77.4 601.7,77.1 601.9,78.1 602.2,77.1 602.6,77.4 				"/>
				<polygon class="st7" points="659.9,102.9 661,102.7 659.9,102.6 660.2,102.2 659.8,102.4 659.6,101.4 659.4,102.4 659,102.2 
					659.2,102.6 658.1,102.7 659.2,102.9 659,103.3 659.4,103.1 659.6,104.1 659.8,103.1 660.2,103.3 				"/>
				<polygon class="st7" points="625.9,90.4 627,90.2 625.9,90 626.2,89.6 625.8,89.9 625.6,88.9 625.4,89.9 625,89.6 625.2,90 
					624.1,90.2 625.2,90.4 625,90.8 625.4,90.5 625.6,91.6 625.8,90.5 626.2,90.8 				"/>
				<polygon class="st7" points="655.5,79.5 656.6,79.4 655.5,79.2 655.8,78.8 655.4,79 655.2,78 655,79 654.6,78.8 654.8,79.2 
					653.7,79.4 654.8,79.5 654.6,79.9 655,79.7 655.2,80.7 655.4,79.7 655.8,79.9 				"/>
				<polygon class="st7" points="580,103.5 581.1,103.3 580,103.1 580.2,102.7 579.8,103 579.6,101.9 579.4,103 579,102.7 
					579.3,103.1 578.2,103.3 579.3,103.5 579,103.8 579.4,103.6 579.6,104.6 579.8,103.6 580.2,103.8 				"/>
				<polygon class="st7" points="585.2,117.3 586.3,117.1 585.2,117 585.5,116.6 585.1,116.8 584.9,115.8 584.7,116.8 584.3,116.6 
					584.6,117 583.5,117.1 584.6,117.3 584.3,117.7 584.7,117.5 584.9,118.5 585.1,117.5 585.5,117.7 				"/>
				<polygon class="st7" points="572,75.9 573.1,75.8 572,75.6 572.3,75.2 571.9,75.4 571.7,74.4 571.5,75.4 571.1,75.2 571.3,75.6 
					570.2,75.8 571.3,75.9 571.1,76.3 571.5,76.1 571.7,77.1 571.9,76.1 572.3,76.3 				"/>
				<polygon class="st7" points="542.7,71.5 543.8,71.3 542.7,71.1 542.9,70.7 542.5,71 542.3,69.9 542.1,71 541.7,70.7 542,71.1 
					540.9,71.3 542,71.5 541.7,71.8 542.1,71.6 542.3,72.6 542.5,71.6 542.9,71.8 				"/>
				<polygon class="st7" points="555.2,52.5 556.3,52.3 555.2,52.1 555.5,51.7 555.1,52 554.9,51 554.6,52 554.2,51.7 554.5,52.1 
					553.4,52.3 554.5,52.5 554.2,52.9 554.6,52.6 554.9,53.7 555.1,52.6 555.5,52.9 				"/>
				<polygon class="st7" points="539.9,124.1 541,124 539.9,123.8 540.2,123.4 539.8,123.6 539.6,122.6 539.4,123.6 539,123.4 
					539.2,123.8 538.1,124 539.2,124.1 539,124.5 539.4,124.3 539.6,125.3 539.8,124.3 540.2,124.5 				"/>
			</g>
			<g id="estrellas_1_3_" class="st5">
				<polygon class="st7" points="673.3,255.8 674.4,255.6 673.3,255.4 673.5,255 673.1,255.3 672.9,254.2 672.7,255.3 672.3,255 
					672.6,255.4 671.5,255.6 672.6,255.8 672.3,256.2 672.7,255.9 672.9,256.9 673.1,255.9 673.5,256.2 				"/>
				<polygon class="st7" points="730.9,281.7 732,281.6 730.9,281.4 731.2,281 730.8,281.2 730.5,280.2 730.3,281.2 729.9,281 
					730.2,281.4 729.1,281.6 730.2,281.7 729.9,282.1 730.3,281.9 730.5,282.9 730.8,281.9 731.2,282.1 				"/>
				<polygon class="st7" points="696.9,269.2 698,269 696.9,268.8 697.2,268.4 696.8,268.7 696.6,267.7 696.3,268.7 695.9,268.4 
					696.2,268.8 695.1,269 696.2,269.2 695.9,269.6 696.3,269.3 696.6,270.4 696.8,269.3 697.2,269.6 				"/>
				<polygon class="st7" points="726.5,258.4 727.6,258.2 726.5,258 726.8,257.6 726.4,257.8 726.2,256.8 726,257.8 725.5,257.6 
					725.8,258 724.7,258.2 725.8,258.4 725.5,258.7 726,258.5 726.2,259.5 726.4,258.5 726.8,258.7 				"/>
				<polygon class="st7" points="650.9,282.3 652,282.1 650.9,281.9 651.2,281.5 650.8,281.8 650.6,280.7 650.4,281.8 650,281.5 
					650.3,281.9 649.2,282.1 650.3,282.3 650,282.7 650.4,282.4 650.6,283.4 650.8,282.4 651.2,282.7 				"/>
				<polygon class="st7" points="656.2,296.1 657.3,296 656.2,295.8 656.5,295.4 656.1,295.6 655.9,294.6 655.7,295.6 655.3,295.4 
					655.5,295.8 654.4,296 655.5,296.1 655.3,296.5 655.7,296.3 655.9,297.3 656.1,296.3 656.5,296.5 				"/>
				<polygon class="st7" points="643,254.8 644.1,254.6 643,254.4 643.3,254 642.9,254.3 642.7,253.2 642.5,254.3 642,254 
					642.3,254.4 641.2,254.6 642.3,254.8 642,255.1 642.5,254.9 642.7,255.9 642.9,254.9 643.3,255.1 				"/>
				<polygon class="st7" points="613.6,250.3 614.7,250.1 613.6,249.9 613.9,249.5 613.5,249.8 613.3,248.7 613.1,249.8 
					612.7,249.5 613,249.9 611.9,250.1 613,250.3 612.7,250.7 613.1,250.4 613.3,251.4 613.5,250.4 613.9,250.7 				"/>
				<polygon class="st7" points="626.2,231.3 627.3,231.1 626.2,230.9 626.5,230.6 626,230.8 625.8,229.8 625.6,230.8 625.2,230.6 
					625.5,230.9 624.4,231.1 625.5,231.3 625.2,231.7 625.6,231.4 625.8,232.5 626,231.4 626.5,231.7 				"/>
				<polygon class="st7" points="610.9,303 612,302.8 610.9,302.6 611.2,302.2 610.8,302.4 610.6,301.4 610.4,302.4 609.9,302.2 
					610.2,302.6 609.1,302.8 610.2,303 609.9,303.3 610.4,303.1 610.6,304.1 610.8,303.1 611.2,303.3 				"/>
			</g>
			<g id="estrellas_1_4_" class="st5">
				<polygon class="st7" points="132.9,101.1 134,100.9 132.9,100.7 133.2,100.3 132.8,100.6 132.6,99.6 132.4,100.6 131.9,100.3 
					132.2,100.7 131.1,100.9 132.2,101.1 131.9,101.5 132.4,101.2 132.6,102.3 132.8,101.2 133.2,101.5 				"/>
				<polygon class="st7" points="190.5,127.1 191.6,126.9 190.5,126.7 190.8,126.3 190.4,126.5 190.2,125.5 190,126.5 189.6,126.3 
					189.9,126.7 188.7,126.9 189.9,127.1 189.6,127.4 190,127.2 190.2,128.2 190.4,127.2 190.8,127.4 				"/>
				<polygon class="st7" points="156.5,114.5 157.6,114.3 156.5,114.1 156.8,113.8 156.4,114 156.2,113 156,114 155.6,113.8 
					155.9,114.1 154.8,114.3 155.9,114.5 155.6,114.9 156,114.6 156.2,115.7 156.4,114.6 156.8,114.9 				"/>
				<polygon class="st7" points="186.1,103.7 187.2,103.5 186.1,103.3 186.4,102.9 186,103.2 185.8,102.1 185.6,103.2 185.2,102.9 
					185.5,103.3 184.4,103.5 185.5,103.7 185.2,104 185.6,103.8 185.8,104.8 186,103.8 186.4,104 				"/>
				<polygon class="st7" points="110.6,127.6 111.7,127.4 110.6,127.2 110.9,126.8 110.5,127.1 110.2,126 110,127.1 109.6,126.8 
					109.9,127.2 108.8,127.4 109.9,127.6 109.6,128 110,127.7 110.2,128.7 110.5,127.7 110.9,128 				"/>
				<polygon class="st7" points="115.8,141.5 116.9,141.3 115.8,141.1 116.1,140.7 115.7,140.9 115.5,139.9 115.3,140.9 
					114.9,140.7 115.2,141.1 114.1,141.3 115.2,141.5 114.9,141.8 115.3,141.6 115.5,142.6 115.7,141.6 116.1,141.8 				"/>
				<polygon class="st7" points="102.6,100.1 103.7,99.9 102.6,99.7 102.9,99.3 102.5,99.6 102.3,98.5 102.1,99.6 101.7,99.3 
					102,99.7 100.9,99.9 102,100.1 101.7,100.4 102.1,100.2 102.3,101.2 102.5,100.2 102.9,100.4 				"/>
				<polygon class="st7" points="73.3,95.6 74.4,95.4 73.3,95.2 73.6,94.8 73.2,95.1 72.9,94 72.7,95.1 72.3,94.8 72.6,95.2 
					71.5,95.4 72.6,95.6 72.3,96 72.7,95.7 72.9,96.7 73.2,95.7 73.6,96 				"/>
				<polygon class="st7" points="85.8,76.6 86.9,76.4 85.8,76.2 86.1,75.9 85.7,76.1 85.5,75.1 85.3,76.1 84.9,75.9 85.1,76.2 
					84,76.4 85.1,76.6 84.9,77 85.3,76.7 85.5,77.8 85.7,76.7 86.1,77 				"/>
				<polygon class="st7" points="70.5,148.3 71.6,148.1 70.5,147.9 70.8,147.5 70.4,147.8 70.2,146.7 70,147.8 69.6,147.5 
					69.9,147.9 68.8,148.1 69.9,148.3 69.6,148.6 70,148.4 70.2,149.4 70.4,148.4 70.8,148.6 				"/>
			</g>
			<g id="estrellas_1_5_" class="st5">
				<polygon class="st7" points="489.2,381.6 490.3,381.4 489.2,381.2 489.4,380.8 489,381.1 488.8,380.1 488.6,381.1 488.2,380.8 
					488.5,381.2 487.4,381.4 488.5,381.6 488.2,382 488.6,381.7 488.8,382.8 489,381.7 489.4,382 				"/>
				<polygon class="st7" points="546.8,407.6 547.9,407.4 546.8,407.2 547.1,406.8 546.6,407.1 546.4,406 546.2,407.1 545.8,406.8 
					546.1,407.2 545,407.4 546.1,407.6 545.8,408 546.2,407.7 546.4,408.7 546.6,407.7 547.1,408 				"/>
				<polygon class="st7" points="512.8,395 513.9,394.8 512.8,394.7 513.1,394.3 512.6,394.5 512.4,393.5 512.2,394.5 511.8,394.3 
					512.1,394.7 511,394.8 512.1,395 511.8,395.4 512.2,395.2 512.4,396.2 512.6,395.2 513.1,395.4 				"/>
				<polygon class="st7" points="542.4,384.2 543.5,384 542.4,383.8 542.7,383.4 542.2,383.7 542,382.6 541.8,383.7 541.4,383.4 
					541.7,383.8 540.6,384 541.7,384.2 541.4,384.6 541.8,384.3 542,385.3 542.2,384.3 542.7,384.6 				"/>
				<polygon class="st7" points="466.8,408.1 467.9,407.9 466.8,407.7 467.1,407.3 466.7,407.6 466.5,406.5 466.3,407.6 
					465.9,407.3 466.2,407.7 465.1,407.9 466.2,408.1 465.9,408.5 466.3,408.2 466.5,409.2 466.7,408.2 467.1,408.5 				"/>
				<polygon class="st7" points="472.1,422 473.2,421.8 472.1,421.6 472.4,421.2 472,421.5 471.8,420.4 471.6,421.5 471.1,421.2 
					471.4,421.6 470.3,421.8 471.4,422 471.1,422.4 471.6,422.1 471.8,423.1 472,422.1 472.4,422.4 				"/>
				<polygon class="st7" points="458.9,380.6 460,380.4 458.9,380.2 459.2,379.8 458.7,380.1 458.5,379 458.3,380.1 457.9,379.8 
					458.2,380.2 457.1,380.4 458.2,380.6 457.9,381 458.3,380.7 458.5,381.7 458.7,380.7 459.2,381 				"/>
				<polygon class="st7" points="429.5,376.1 430.6,375.9 429.5,375.7 429.8,375.3 429.4,375.6 429.2,374.6 429,375.6 428.6,375.3 
					428.9,375.7 427.8,375.9 428.9,376.1 428.6,376.5 429,376.2 429.2,377.3 429.4,376.2 429.8,376.5 				"/>
				<polygon class="st7" points="442.1,357.1 443.2,357 442.1,356.8 442.3,356.4 441.9,356.6 441.7,355.6 441.5,356.6 441.1,356.4 
					441.4,356.8 440.3,357 441.4,357.1 441.1,357.5 441.5,357.3 441.7,358.3 441.9,357.3 442.3,357.5 				"/>
				<polygon class="st7" points="426.8,428.8 427.9,428.6 426.8,428.4 427.1,428 426.7,428.3 426.4,427.2 426.2,428.3 425.8,428 
					426.1,428.4 425,428.6 426.1,428.8 425.8,429.2 426.2,428.9 426.4,429.9 426.7,428.9 427.1,429.2 				"/>
			</g>
			<g id="estrellas_1_1_" class="st5">
				<polygon class="st7" points="390.8,161.1 393.6,160.6 390.8,160 391.5,158.9 390.5,159.7 390,156.8 389.5,159.7 388.4,158.9 
					389.1,160 386.4,160.6 389.1,161.1 388.4,162.2 389.5,161.5 390,164.4 390.5,161.5 391.5,162.2 				"/>
				<polygon class="st7" points="536.6,234.8 539.4,234.3 536.6,233.7 537.3,232.6 536.3,233.4 535.8,230.5 535.3,233.4 
					534.2,232.6 534.9,233.7 532.1,234.3 534.9,234.8 534.2,235.9 535.3,235.2 535.8,238.1 536.3,235.2 537.3,235.9 				"/>
				<polygon class="st7" points="450.6,199.2 453.4,198.7 450.6,198.2 451.3,197.1 450.3,197.8 449.8,194.9 449.2,197.8 
					448.2,197.1 448.9,198.2 446.1,198.7 448.9,199.2 448.2,200.3 449.2,199.6 449.8,202.5 450.3,199.6 451.3,200.3 				"/>
				<polygon class="st7" points="525.5,168.4 528.3,167.9 525.5,167.3 526.2,166.2 525.2,167 524.7,164 524.1,167 523.1,166.2 
					523.8,167.3 521,167.9 523.8,168.4 523.1,169.5 524.1,168.8 524.7,171.7 525.2,168.8 526.2,169.5 				"/>
				<polygon class="st7" points="334.4,236.3 337.1,235.8 334.4,235.2 335.1,234.1 334,234.9 333.5,231.9 333,234.9 332,234.1 
					332.7,235.2 329.9,235.8 332.7,236.3 332,237.4 333,236.6 333.5,239.6 334,236.6 335.1,237.4 				"/>
				<polygon class="st7" points="347.7,275.7 350.5,275.2 347.7,274.6 348.4,273.5 347.4,274.3 346.8,271.3 346.3,274.3 
					345.3,273.5 346,274.6 343.2,275.2 346,275.7 345.3,276.8 346.3,276.1 346.8,279 347.4,276.1 348.4,276.8 				"/>
				<polygon class="st7" points="314.2,158.2 317,157.7 314.2,157.1 314.9,156 313.9,156.8 313.4,153.8 312.9,156.8 311.8,156 
					312.5,157.1 309.7,157.7 312.5,158.2 311.8,159.3 312.9,158.5 313.4,161.5 313.9,158.5 314.9,159.3 				"/>
				<polygon class="st7" points="271.7,91.7 274.5,91.1 271.7,90.6 272.4,89.5 271.3,90.2 270.8,87.3 270.3,90.2 269.3,89.5 
					270,90.6 267.2,91.1 270,91.7 269.3,92.8 270.3,92 270.8,94.9 271.3,92 272.4,92.8 				"/>
				<polygon class="st7" points="233,295 235.8,294.5 233,293.9 233.7,292.8 232.7,293.6 232.2,290.7 231.7,293.6 230.6,292.8 
					231.3,293.9 228.5,294.5 231.3,295 230.6,296.1 231.7,295.4 232.2,298.3 232.7,295.4 233.7,296.1 				"/>
			</g>
			
				<radialGradient id="SVGID_8_" cx="211.1534" cy="393.9383" r="408.7598" gradientTransform="matrix(-0.6246 0.7809 -0.4425 -0.3539 416.1688 171.0943)" gradientUnits="userSpaceOnUse">
				<stop  offset="0" style="stop-color:#523065"/>
				<stop  offset="2.563543e-02" style="stop-color:#582D68"/>
				<stop  offset="6.028052e-02" style="stop-color:#692670"/>
				<stop  offset="0.1001" style="stop-color:#86197C"/>
				<stop  offset="0.1434" style="stop-color:#AD088E"/>
				<stop  offset="0.1621" style="stop-color:#C00097"/>
			</radialGradient>
			<polygon class="st11" points="124.8,203.5 168.4,188.5 122.3,185.9 131.4,166.7 116.3,181.1 101.5,134.9 99.6,183.4 81.3,173.6 
				95.2,189.6 51.5,204.6 97.6,207.2 88.6,226.4 103.6,212 118.5,258.2 120.3,209.7 138.7,219.5 			"/>
			
				<radialGradient id="SVGID_9_" cx="766.2686" cy="532.4785" r="408.7598" gradientTransform="matrix(-0.6246 0.7809 -0.4425 -0.3539 1393.0676 -152.0921)" gradientUnits="userSpaceOnUse">
				<stop  offset="0" style="stop-color:#523065"/>
				<stop  offset="2.563543e-02" style="stop-color:#582D68"/>
				<stop  offset="6.028052e-02" style="stop-color:#692670"/>
				<stop  offset="0.1001" style="stop-color:#86197C"/>
				<stop  offset="0.1434" style="stop-color:#AD088E"/>
				<stop  offset="0.1621" style="stop-color:#C00097"/>
			</radialGradient>
			<polygon class="st12" points="693.6,264.8 737.3,249.8 691.2,247.2 700.2,228 685.2,242.4 670.3,196.2 668.5,244.7 650.1,234.9 
				664,250.9 620.4,265.9 666.4,268.5 657.4,287.7 672.5,273.3 687.3,319.5 689.1,271 707.5,280.8 			"/>
			
				<radialGradient id="SVGID_10_" cx="451.087" cy="656.9625" r="408.7585" gradientTransform="matrix(-0.7274 0.6862 -0.3888 -0.4122 967.2283 385.5305)" gradientUnits="userSpaceOnUse">
				<stop  offset="0" style="stop-color:#523065"/>
				<stop  offset="2.563543e-02" style="stop-color:#582D68"/>
				<stop  offset="6.028052e-02" style="stop-color:#692670"/>
				<stop  offset="0.1001" style="stop-color:#86197C"/>
				<stop  offset="0.1434" style="stop-color:#AD088E"/>
				<stop  offset="0.1621" style="stop-color:#C00097"/>
			</radialGradient>
			<polygon class="st13" points="397.4,433.2 442.7,424.5 397.4,415.5 409,397.7 392.1,409.9 383.8,362.1 375.3,409.8 358.5,397.6 
				370,415.4 324.7,424.2 369.9,433.2 358.3,450.9 375.2,438.7 383.5,486.5 392.1,438.8 408.9,451 			"/>
		</g>
	</g>
	<g id="XMLID_1_" class="st14">
		<g>
			<path class="st15" d="M588,128c-4.6,4-10.5,5.9-16.6,5.4c-6.1-0.5-11.6-3.3-15.6-7.9c-4.1-4.8-5.9-10.8-5.4-16.6
				s3.1-11.5,7.9-15.6l52.1-44.7c0.8-0.7,2-0.6,2.7,0.2c0.7,0.8,0.6,2-0.2,2.7l-3.4,2.9c-1.9-0.6-4-0.3-5.6,1.1l-40.8,35
				c-0.9,0.8-1.5,1.8-1.8,2.9c-5,3.5-8.4,9.1-8.9,15.6c-0.9,11.5,7.7,21.6,19.3,22.5c6.5,0.5,12.6-2.1,16.8-6.4
				c1.1-0.1,2.2-0.5,3.1-1.3l49-42.1c1.6-1.4,2.3-3.4,1.9-5.4l9.5-8.2c0.8-0.7,2-0.6,2.7,0.2c0.7,0.8,0.6,2-0.2,2.7L588,128z"/>
			<path class="st15" d="M588.3,125.1c-4.2,4.4-10.2,6.9-16.8,6.4c-11.5-0.9-20.2-10.9-19.3-22.5c0.5-6.5,3.9-12.1,8.9-15.6
				c0.3-1.1,0.9-2.1,1.8-2.9l40.8-35c1.6-1.4,3.7-1.7,5.6-1.1l-48.7,41.8c-8,6.8-8.9,18.9-2,26.8c6.8,8,18.9,8.9,26.8,2l56.8-48.8
				c0.4,1.9-0.3,4-1.9,5.4l-49,42.1C590.5,124.5,589.4,125,588.3,125.1z"/>
			<path class="st16" d="M574.9,125.8c-10.8,1.2-19.2-8.7-16.5-19.2c1.5-5.7,6.5-10.1,12.4-11c2.3-0.3,4.6-0.2,6.6,0.4
				c3.6,1,7.4,0,10.2-2.4l20.3-17.4c1.6-1.4,4.1-1,5.3,0.9c0.9,1.5,0.5,3.4-0.9,4.6l-20.2,17.3c-2.8,2.4-4.5,6.1-4,9.8
				c0.3,2.1,0.1,4.3-0.6,6.6C585.9,120.9,580.8,125.2,574.9,125.8z M566.5,120c1.6,1.2,3.6,1.9,5.7,2.1c6.3,0.5,11.8-4.2,12.3-10.5
				c0.1-1.4,0-2.8-0.4-4.1c-0.2-0.6-0.4-1.3-0.7-1.9c-0.1-0.1-0.1-0.2-0.2-0.3c-1.8-3.3-5.2-5.7-9.2-6c-6.3-0.5-11.8,4.2-12.3,10.5
				C561.4,114,563.4,117.7,566.5,120C566.5,120,566.5,120,566.5,120L566.5,120z"/>
			<path class="st17" d="M585.5,125.1c-8,6.8-20,5.9-26.8-2c-6.8-8-5.9-20,2-26.8l48.7-41.8c0.9,0.3,1.8,0.9,2.5,1.7
				c0.9,1,1.3,2.2,1.4,3.4L597.6,73c-0.4,0.3-0.6,0.8-0.7,1.3c0,0.5,0.1,1,0.5,1.4c0.7,0.8,1.9,0.9,2.7,0.2l32-27.5
				c1.2,0.2,2.3,0.9,3.2,1.9c0.9,1,1.3,2.2,1.4,3.4l-18.7,16.1c-0.4,0.3-0.6,0.8-0.7,1.3c0,0.5,0.1,1,0.5,1.4
				c0.7,0.8,1.9,0.9,2.7,0.2l29-24.8c1.2,0.2,2.3,0.9,3.2,1.9c0.9,1,1.3,2.2,1.4,3.4l-47.3,40.6c-0.4,0.3-0.6,0.8-0.7,1.3
				s0.1,1,0.5,1.4c0.7,0.8,1.9,0.9,2.7,0.2l28.9-24.8c1.2,0.2,2.3,0.9,3.2,1.9c0.7,0.8,1.1,1.7,1.3,2.7L585.5,125.1z M558.4,106.6
				c-2.8,10.5,5.7,20.3,16.5,19.2c5.9-0.6,11-4.9,12.8-10.5c0.7-2.3,0.8-4.5,0.6-6.6c-0.5-3.7,1.2-7.3,4-9.8l20.2-17.3
				c1.3-1.1,1.8-3.1,0.9-4.6c-1.2-1.9-3.7-2.2-5.3-0.9l-20.3,17.4c-2.8,2.4-6.7,3.5-10.2,2.4c-2-0.6-4.3-0.8-6.6-0.4
				C564.9,96.5,560,100.9,558.4,106.6z"/>
			<path class="st18" d="M572.3,122.1c-2.1-0.2-4.1-0.9-5.7-2.1l0,0c0,0,0,0,0,0c-0.9-1.8-1.3-3.8-1.2-6c0.1-0.9,0.2-1.8,0.5-2.6
				l0.5,0.4c0.8,0.6,2,0.5,2.7-0.3c0.6-0.8,0.5-2-0.3-2.7l-1-0.8c1.4-1.8,3.4-3.2,5.6-3.9l-1.3,1.7c-0.2,0.3-0.4,0.7-0.4,1
				c0,0.6,0.2,1.2,0.7,1.6c0.8,0.7,2,0.5,2.7-0.3l2-2.5c0.5-0.6,0.5-1.4,0.2-2c0.2,0,0.3,0,0.5,0c2.1,0.2,4.1,0.9,5.7,2.1
				c0.3,0.6,0.5,1.2,0.7,1.9l-3.1,1.7c-0.6,0.3-0.9,0.9-1,1.5c0,0.4,0,0.7,0.2,1.1c0.5,0.9,1.7,1.3,2.6,0.7l1.6-0.9
				C584,117.8,578.5,122.5,572.3,122.1z M574.3,120.3c2.1,0.2,3.9-1.4,4.1-3.5c0.2-2.1-1.4-3.9-3.5-4.1c-2.1-0.2-3.9,1.4-4.1,3.5
				C570.6,118.3,572.2,120.1,574.3,120.3z"/>
			<path class="st19" d="M578.4,116.8c-0.2,2.1-2,3.7-4.1,3.5s-3.7-2-3.5-4.1c0.2-2.1,2-3.7,4.1-3.5
				C577,112.9,578.5,114.7,578.4,116.8z"/>
			<path class="st20" d="M565.4,114c-0.2,2.1,0.3,4.2,1.2,6c-3.2-2.2-3.8-5.9-3.5-10.1c0.5-6.3,4.6-10.3,10.9-9.8
				c4,0.3,7.5,1.9,9.2,5.1c0.1,0.1,0.1,0.2,0.2,0.3c-1.6-1.2-3.6-1.9-5.7-2.1c-0.2,0-0.3,0-0.5,0c0.3,0.6,0.3,1.4-0.2,2l-2,2.5
				c-0.7,0.8-1.9,1-2.7,0.3c-0.5-0.4-0.8-1-0.7-1.6c0-0.4,0.2-0.7,0.4-1l1.3-1.7c-2.2,0.7-4.2,2.1-5.6,3.9l1,0.8
				c0.8,0.6,1,1.8,0.3,2.7c-0.6,0.8-1.8,1-2.7,0.3l-0.5-0.4C565.6,112.2,565.4,113.1,565.4,114z"/>
			<path class="st20" d="M563,109.9c-0.3,4.1,0.4,7.8,3.5,10.1c-3.2-2.2-5.1-6-4.8-10.2c0.5-6.3,6-11,12.3-10.5c4,0.3,7.4,2.7,9.2,6
				c-1.8-3.3-5.2-4.8-9.2-5.1C567.7,99.6,563.5,103.6,563,109.9z"/>
			<path class="st19" d="M582.9,112.5c-0.9,0.5-2.1,0.2-2.6-0.7c-0.2-0.3-0.3-0.7-0.2-1.1c0-0.6,0.4-1.2,1-1.5l3.1-1.7l0.4,4.1
				L582.9,112.5z"/>
			<path class="st19" d="M584.5,111.5l-0.4-4.1C584.5,108.7,584.6,110.1,584.5,111.5z"/>
			<path class="st15" d="M608.9,96.6c-0.8,0.7-2,0.6-2.7-0.2c-0.3-0.4-0.5-0.9-0.5-1.4s0.3-1,0.7-1.3l47.3-40.6
				c0.1,1.7-0.6,3.4-2,4.6l-16.4,14.1c0.8-0.2,1.7-0.2,2.5,0L608.9,96.6z"/>
			<path class="st15" d="M600,75.9c-0.8,0.7-2,0.6-2.7-0.2c-0.3-0.4-0.5-0.9-0.5-1.4c0-0.5,0.3-1,0.7-1.3l15.7-13.4
				c0,0.8-0.1,1.7-0.4,2.4l14.4-12.3c1.4-1.2,3.2-1.6,4.9-1.3L600,75.9z"/>
			<path class="st15" d="M620.3,72.7c-0.8,0.7-2,0.6-2.7-0.2c-0.3-0.4-0.5-0.9-0.5-1.4c0-0.5,0.3-1,0.7-1.3l18.7-16.1
				c0,0.8-0.1,1.7-0.4,2.4l8.2-7.1c1.4-1.2,3.2-1.6,4.9-1.3L620.3,72.7z"/>
			<path class="st15" d="M635.4,71.8l16.4-14.1c1.4-1.2,2.1-2.9,2-4.6l8.8-7.6c0.8-0.7,2-0.6,2.7,0.2c0.7,0.8,0.6,2-0.2,2.7
				l-27.2,23.3C637.1,71.6,636.2,71.7,635.4,71.8z"/>
			<path class="st15" d="M627.2,49.7L612.8,62c0.3-0.8,0.5-1.6,0.4-2.4l23.1-19.8c0.8-0.7,2-0.6,2.7,0.2c0.7,0.8,0.6,2-0.2,2.7
				l-6.8,5.8C630.4,48.1,628.6,48.5,627.2,49.7z"/>
			<path class="st15" d="M644.4,49.1l-8.2,7.1c0.3-0.8,0.5-1.6,0.4-2.4L676,19.9c0.8-0.7,2-0.6,2.7,0.2c0.7,0.8,0.6,2-0.2,2.7
				l-29.2,25.1C647.6,47.5,645.8,47.9,644.4,49.1z"/>
		</g>
		<g>
		</g>
	</g>
	<g id="XMLID_2_" class="st14">
		<g>
			<path class="st15" d="M128.8,391.5c-4.1,4.2-9.7,6.6-15.6,6.7s-11.5-2.2-15.7-6.3c-4.4-4.3-6.6-9.9-6.7-15.6
				c-0.1-5.7,2-11.4,6.3-15.7l46.4-47.7c0.7-0.7,1.9-0.7,2.6,0c0.7,0.7,0.7,1.9,0,2.6l-3,3.1c-1.8-0.5-3.9,0.1-5.3,1.5l-36.4,37.4
				c-0.8,0.8-1.3,1.9-1.5,3c-4.5,3.8-7.4,9.5-7.3,15.8c0.1,11.2,9.4,20.2,20.6,20c6.3-0.1,12-3.1,15.6-7.7c1.1-0.2,2.1-0.7,2.9-1.6
				l43.7-44.9c1.4-1.5,1.9-3.5,1.4-5.3l8.5-8.7c0.7-0.7,1.9-0.7,2.6,0c0.7,0.7,0.7,1.9,0,2.6L128.8,391.5z"/>
			<path class="st15" d="M128.9,388.7c-3.7,4.6-9.3,7.6-15.6,7.7c-11.2,0.1-20.4-8.8-20.6-20c-0.1-6.3,2.8-12,7.3-15.8
				c0.2-1.1,0.7-2.1,1.5-3l36.4-37.4c1.4-1.5,3.5-2,5.3-1.5l-43.4,44.6c-7.1,7.3-6.9,19,0.3,26.1c7.3,7.1,19,7,26.1-0.3l50.7-52
				c0.5,1.8,0.1,3.9-1.4,5.3l-43.7,44.9C131,387.9,129.9,388.5,128.9,388.7z"/>
			<path class="st16" d="M116,390.5c-10.3,2.1-19.3-6.7-17.6-17.1c1-5.7,5.4-10.4,11-11.7c2.2-0.5,4.4-0.5,6.4-0.1
				c3.5,0.7,7.2-0.7,9.7-3.2l18.1-18.6c1.4-1.5,3.9-1.4,5.2,0.4c1,1.4,0.7,3.3-0.4,4.5l-18,18.5c-2.5,2.6-3.8,6.3-3,9.8
				c0.5,2,0.5,4.2,0,6.4C126.2,384.9,121.6,389.4,116,390.5z M107.4,385.6c1.7,1,3.6,1.5,5.7,1.5c6.1-0.1,11-5.1,10.9-11.2
				c0-1.4-0.3-2.7-0.8-3.9c-0.2-0.6-0.5-1.2-0.9-1.7c-0.1-0.1-0.1-0.2-0.2-0.3c-2-3-5.5-5-9.4-5c-6.1,0.1-11,5.1-10.9,11.2
				c0.1,3.9,2.1,7.3,5.2,9.2C107.2,385.5,107.3,385.6,107.4,385.6z"/>
			<path class="st17" d="M126.2,388.9c-7.1,7.3-18.8,7.4-26.1,0.3c-7.3-7.1-7.4-18.8-0.3-26.1l43.4-44.6c0.9,0.2,1.8,0.7,2.5,1.4
				c0.9,0.9,1.4,2,1.6,3.2l-14,14.3c-0.4,0.4-0.5,0.8-0.5,1.3c0,0.5,0.2,0.9,0.6,1.3c0.7,0.7,1.9,0.7,2.6,0l28.6-29.3
				c1.2,0.1,2.3,0.6,3.2,1.5c0.9,0.9,1.4,2,1.6,3.2l-16.7,17.2c-0.4,0.4-0.5,0.8-0.5,1.3s0.2,0.9,0.6,1.3c0.7,0.7,1.9,0.7,2.6,0
				l25.8-26.5c1.2,0.1,2.3,0.6,3.2,1.5c0.9,0.9,1.4,2,1.6,3.2l-42.2,43.3c-0.4,0.4-0.5,0.8-0.5,1.3s0.2,0.9,0.6,1.3
				c0.7,0.7,1.9,0.7,2.6,0l25.8-26.5c1.2,0.1,2.3,0.6,3.2,1.5c0.7,0.7,1.2,1.6,1.5,2.5L126.2,388.9z M98.4,373.4
				c-1.8,10.4,7.2,19.2,17.6,17.1c5.7-1.1,10.2-5.6,11.4-11.3c0.5-2.2,0.4-4.4,0-6.4c-0.8-3.5,0.5-7.2,3-9.8l18-18.5
				c1.2-1.2,1.4-3.1,0.4-4.5c-1.3-1.7-3.7-1.8-5.2-0.4l-18.1,18.6c-2.5,2.6-6.2,4-9.7,3.2c-2-0.4-4.2-0.4-6.4,0.1
				C103.8,363,99.4,367.7,98.4,373.4z"/>
			<path class="st18" d="M113.1,387.1c-2.1,0-4-0.5-5.7-1.5c-1-1.6-1.6-3.6-1.7-5.7c0-0.9,0.1-1.8,0.3-2.6l0.5,0.3
				c0.9,0.6,2,0.3,2.6-0.5c0.6-0.9,0.3-2-0.5-2.6l-1-0.7c1.2-1.9,3-3.4,5.1-4.3l-1.1,1.7c-0.2,0.3-0.3,0.7-0.3,1
				c0,0.6,0.3,1.2,0.8,1.5c0.9,0.6,2,0.3,2.6-0.5l1.7-2.6c0.4-0.6,0.4-1.4,0-2c0.2,0,0.3,0,0.5,0c2.1,0,4,0.5,5.7,1.5
				c0.3,0.6,0.6,1.1,0.9,1.7l-2.8,1.9c-0.5,0.4-0.8,1-0.8,1.6c0,0.3,0.1,0.7,0.3,1c0.6,0.8,1.7,1.1,2.6,0.5l1.5-1
				C124.1,382,119.2,387,113.1,387.1z M114.9,385.2c2,0,3.7-1.7,3.6-3.7c0-2-1.7-3.7-3.7-3.6c-2,0-3.7,1.7-3.6,3.7
				C111.2,383.6,112.9,385.3,114.9,385.2z"/>
			<path class="st20" d="M107.4,385.6c-0.1-0.1-0.2-0.1-0.3-0.2c-3-1.9-3.9-5.4-4-9.3c-0.1-6.1,3.6-10.3,9.7-10.4
				c3.9-0.1,7.4,1.2,9.4,4.2c0.1,0.1,0.1,0.2,0.2,0.3c-1.7-1-3.6-1.5-5.7-1.5c-0.2,0-0.3,0-0.5,0c0.4,0.6,0.4,1.4,0,2l-1.7,2.6
				c-0.6,0.9-1.7,1.1-2.6,0.5c-0.5-0.3-0.8-0.9-0.8-1.5c0-0.4,0.1-0.7,0.3-1l1.1-1.7c-2.1,0.9-3.9,2.4-5.1,4.3l1,0.7
				c0.9,0.6,1.1,1.7,0.5,2.6c-0.6,0.9-1.7,1.1-2.6,0.5l-0.5-0.3c-0.2,0.8-0.3,1.7-0.3,2.6C105.8,382,106.4,384,107.4,385.6z"/>
			<path class="st19" d="M118.6,381.5c0,2-1.6,3.7-3.6,3.7c-2,0-3.7-1.6-3.7-3.6c0-2,1.6-3.7,3.6-3.7
				C116.9,377.8,118.5,379.5,118.6,381.5z"/>
			<path class="st20" d="M103.1,376.2c0.1,3.9,1,7.3,4,9.3c-3.1-1.9-5.2-5.3-5.2-9.2c-0.1-6.1,4.8-11.1,10.9-11.2
				c3.9-0.1,7.4,1.9,9.4,5c-2-3-5.5-4.2-9.4-4.2C106.7,365.8,103,370,103.1,376.2z"/>
			<path class="st19" d="M122.5,376.9c-0.8,0.6-2,0.4-2.6-0.5c-0.2-0.3-0.3-0.7-0.3-1c0-0.6,0.3-1.2,0.8-1.6l2.8-1.9l0.8,3.9
				L122.5,376.9z"/>
			<path class="st19" d="M124,375.9l-0.8-3.9C123.8,373.2,124,374.5,124,375.9z"/>
			<path class="st15" d="M146.4,359.4c-0.7,0.7-1.9,0.7-2.6,0c-0.4-0.4-0.6-0.8-0.6-1.3s0.2-0.9,0.5-1.3l42.2-43.3
				c0.2,1.6-0.3,3.4-1.5,4.7l-14.6,15c0.8-0.3,1.6-0.3,2.4-0.3L146.4,359.4z"/>
			<path class="st15" d="M135.9,340.1c-0.7,0.7-1.9,0.7-2.6,0c-0.4-0.4-0.6-0.8-0.6-1.3c0-0.5,0.2-0.9,0.5-1.3l14-14.3
				c0.1,0.8,0,1.6-0.2,2.4l12.8-13.2c1.2-1.3,3-1.8,4.6-1.6L135.9,340.1z"/>
			<path class="st15" d="M155.3,335.3c-0.7,0.7-1.9,0.7-2.6,0c-0.4-0.4-0.6-0.8-0.6-1.3s0.2-0.9,0.5-1.3l16.7-17.2
				c0.1,0.8,0,1.6-0.2,2.4l7.4-7.5c1.2-1.3,3-1.8,4.6-1.6L155.3,335.3z"/>
			<path class="st15" d="M169.8,333.1l14.6-15c1.2-1.3,1.8-3,1.5-4.7l7.9-8.1c0.7-0.7,1.9-0.7,2.6,0c0.7,0.7,0.7,1.9,0,2.6
				l-24.3,24.9C171.4,332.8,170.6,332.9,169.8,333.1z"/>
			<path class="st15" d="M159.9,312.4l-12.8,13.2c0.2-0.8,0.3-1.6,0.2-2.4l20.6-21.2c0.7-0.7,1.9-0.7,2.6,0c0.7,0.7,0.7,1.9,0,2.6
				l-6,6.2C162.9,310.6,161.1,311.2,159.9,312.4z"/>
			<path class="st15" d="M176.5,310.4l-7.4,7.5c0.2-0.8,0.3-1.6,0.2-2.4l35.2-36.1c0.7-0.7,1.9-0.7,2.6,0c0.7,0.7,0.7,1.9,0,2.6
				l-26.1,26.8C179.5,308.5,177.7,309.1,176.5,310.4z"/>
		</g>
		<g>
		</g>
	</g>
</g>
<g id="designed_by_freepik">
</g>
</svg>
